<svg version="1.1" id="Layer_1" xmlns="http://www.w3.org/2000/svg" xmlns:xlink="http://www.w3.org/1999/xlink" x="0px" y="0px"
	 width="100%" viewBox="0 0 152 208" enable-background="new 0 0 152 208" xml:space="preserve">
<path fill="#000000" opacity="1.000000" stroke="none" 
	d="
M1.000000,74.000000 
	C1.000000,49.333340 1.000000,25.166677 1.000000,1.000009 
	C50.499985,1.000000 100.000046,1.033613 149.499756,0.916831 
	C152.482559,0.909794 153.087204,1.517470 153.082413,4.500078 
	C152.975037,71.499893 152.975037,138.499954 153.082367,205.499756 
	C153.087143,208.481934 152.483200,209.090561 149.499908,209.083298 
	C101.166870,208.965591 52.833378,208.965591 4.500341,209.083206 
	C1.517731,209.090469 0.908093,208.483521 0.916403,205.499908 
	C1.038022,161.833527 1.000000,118.166710 1.000000,74.000000 
z"/>
<path fill="#1B2B2F" opacity="1.000000" stroke="none" 
	d="
M3.769440,153.366165 
	C5.101107,144.829483 7.654205,137.127441 12.360660,130.070969 
	C16.797132,123.419266 22.730499,118.586174 29.521263,114.747215 
	C32.540817,113.040207 32.680447,111.597237 30.618643,109.079231 
	C16.146641,91.405113 14.615388,71.227867 21.724804,50.723701 
	C27.929379,32.829178 40.250168,20.024883 59.777458,15.709422 
	C62.474255,15.113441 64.946556,13.489790 68.603119,13.968923 
	C69.671539,13.796270 70.049309,13.641256 70.758560,13.515804 
	C72.144638,13.500935 73.217033,13.492403 74.621231,13.552090 
	C76.968391,14.238929 79.026756,13.995867 81.414490,13.798595 
	C81.977585,13.663252 82.204803,13.616929 82.705750,13.785215 
	C95.369751,15.511992 106.435715,19.447948 115.401253,28.899820 
	C121.056915,34.862270 126.551575,40.703819 129.383240,48.513096 
	C137.144119,69.916466 135.428894,90.214050 121.388039,108.627518 
	C118.287766,112.693291 119.800438,114.192596 123.217186,116.120453 
	C131.349319,120.708900 138.341507,126.436768 142.552155,135.122528 
	C145.348373,140.890610 147.713226,146.710754 148.025269,153.615295 
	C148.146713,154.236420 148.291901,154.432632 148.350067,154.984329 
	C147.756516,158.489914 148.051361,161.656540 148.134552,165.176483 
	C148.259476,165.771942 148.317581,166.008362 148.200531,166.565186 
	C147.545258,176.691071 141.122177,183.023773 131.415268,185.345154 
	C120.285782,188.006744 109.037422,189.691376 97.761780,191.339340 
	C94.487999,191.817825 91.135139,191.755142 87.377800,191.921661 
	C83.830544,191.441635 80.751038,190.404144 77.297211,191.666504 
	C76.260529,191.888107 75.499817,191.906830 74.359169,191.901169 
	C71.385742,190.251755 68.670288,191.102875 65.637474,191.469818 
	C62.471149,190.388947 59.565559,190.827454 56.336967,191.000763 
	C42.669346,190.414658 29.601208,187.754623 16.857721,184.265137 
	C10.457582,182.512634 5.307971,177.301483 4.132985,169.377502 
	C3.899313,168.904343 3.790242,168.774033 3.638280,168.392395 
	C3.647379,167.802002 3.650697,167.462387 3.562517,166.867371 
	C3.505903,166.262543 3.503477,165.912552 3.538007,165.295425 
	C3.677170,164.477371 3.559808,163.934128 3.505575,163.100250 
	C3.499697,161.618393 3.498967,160.424911 3.507636,158.922974 
	C3.587505,157.797226 4.002038,156.996811 3.576619,155.844391 
	C3.499180,154.891190 3.492381,154.251526 3.769440,153.366165 
z"/>
<path fill="#212A2E" opacity="1.000000" stroke="none" 
	d="
M64.605003,190.777252 
	C67.889091,190.602005 70.835999,188.695267 73.815338,191.562897 
	C69.821297,191.949936 65.655434,192.348572 61.192368,191.306000 
	C61.877357,190.121384 63.085655,190.589478 64.605003,190.777252 
z"/>
<path fill="#B3B7BA" opacity="1.000000" stroke="none" 
	d="
M4.313322,167.716766 
	C4.182459,168.138306 4.146172,168.317291 4.059134,168.765472 
	C1.856159,163.930145 3.435670,158.622955 3.567121,153.267532 
	C3.979366,153.848099 3.984661,154.577637 4.060164,155.665161 
	C4.386358,156.430374 4.502302,156.872025 4.291515,157.664688 
	C4.075418,159.707672 4.024776,161.439224 4.050759,163.597992 
	C4.221717,164.183212 4.316050,164.341202 4.271184,164.737549 
	C4.089025,165.433121 4.046063,165.890320 4.073970,166.686218 
	C4.232525,167.174683 4.320211,167.324463 4.313322,167.716766 
z"/>
<path fill="#212A2E" opacity="1.000000" stroke="none" 
	d="
M77.471161,191.905807 
	C79.982979,188.041138 83.204903,191.039413 86.633865,191.708679 
	C83.931747,191.915955 80.926414,191.929108 77.471161,191.905807 
z"/>
<path fill="#0F1A1B" opacity="1.000000" stroke="none" 
	d="
M64.729980,190.788116 
	C63.889610,190.998611 62.792389,191.003571 61.280846,191.023804 
	C59.463291,191.737076 58.045715,192.265594 56.255310,191.204742 
	C58.758148,189.524231 61.569298,189.116287 64.729980,190.788116 
z"/>
<path fill="#7C8084" opacity="1.000000" stroke="none" 
	d="
M75.465981,14.292097 
	C73.637123,14.090592 72.217056,14.048421 70.376030,14.079350 
	C69.784042,14.226415 69.613007,14.300382 69.219009,14.205792 
	C68.996033,14.037237 68.849358,13.907499 68.779709,13.976423 
	C73.227501,11.900353 77.957970,13.363689 82.786690,13.612740 
	C82.807014,14.010052 82.634544,14.020278 82.207268,14.077728 
	C79.959778,14.852161 77.902885,14.384005 75.465981,14.292097 
z"/>
<path fill="#BCC0C1" opacity="1.000000" stroke="none" 
	d="
M147.691711,155.466553 
	C147.884918,154.868286 147.930695,154.706329 147.989014,154.292297 
	C150.176727,158.096130 148.556107,162.402405 148.427124,166.734711 
	C148.025360,166.885605 148.019150,166.418320 147.945068,166.196716 
	C147.114182,162.638718 147.635483,159.260849 147.691711,155.466553 
z"/>
<path fill="#F9C05B" opacity="1.000000" stroke="none" 
	d="
M117.156616,98.262955 
	C115.562134,101.768494 113.209755,104.346832 110.433029,106.983063 
	C108.935760,107.602081 107.870491,108.222145 107.183395,109.754868 
	C106.983246,109.996155 106.824120,110.214691 106.688965,110.216248 
	C105.609612,110.322296 105.264336,111.290825 104.300781,111.904114 
	C104.107811,112.162476 104.088150,112.090309 104.124680,112.098320 
	C103.827377,112.197342 103.555008,112.379990 103.166962,112.829880 
	C102.989822,113.005478 102.995712,112.991409 103.003242,112.992722 
	C102.577873,113.437325 101.976768,113.486069 101.224403,113.871300 
	C101.016762,114.075531 101.019005,114.011757 101.046745,114.027519 
	C99.994453,114.811935 98.663338,115.013374 97.322601,115.885452 
	C97.133453,116.150543 97.033104,116.001305 97.078094,116.077278 
	C93.396652,117.497253 89.703117,118.950806 85.454292,119.782692 
	C85.150772,119.999512 85.022629,120.159172 84.928085,120.119934 
	C79.282074,121.507423 73.718834,121.071831 68.195946,120.003609 
	C66.550674,119.685387 64.905914,119.573349 62.791317,119.274399 
	C62.319901,119.194725 62.195141,119.308273 62.135109,119.249023 
	C60.215332,117.572464 57.693760,117.519165 55.281551,116.297035 
	C54.961269,116.143524 54.863811,116.169060 54.848099,116.121201 
	C54.507015,115.468483 53.856033,115.517670 53.034939,115.279678 
	C52.743671,115.235863 52.869110,115.190857 52.888481,115.254608 
	C52.681107,114.625595 52.072113,114.524689 51.216988,114.243393 
	C50.953331,114.090157 50.937698,114.068878 50.925079,114.065002 
	C50.330475,113.179031 49.383701,112.841835 48.204330,112.332901 
	C40.776375,107.685768 35.502106,101.506622 31.848946,93.508865 
	C30.575472,91.084106 30.365799,88.649193 29.107430,86.266281 
	C28.833427,86.038513 28.918333,86.065788 28.903301,86.107773 
	C27.754692,79.378746 27.008781,72.572212 27.034004,65.260719 
	C27.436167,60.554916 30.516172,57.063618 30.768744,52.331848 
	C30.983789,51.969170 31.008474,51.994160 30.991074,51.994305 
	C31.241304,51.756851 31.493206,51.503529 31.736217,50.968441 
	C31.740974,50.700325 31.750929,50.823681 31.689053,50.824314 
	C32.905094,50.450237 32.334251,49.313320 32.799309,48.241180 
	C33.027878,47.651077 33.138474,47.373192 33.550705,47.027138 
	C34.869526,46.426617 35.151531,45.322144 35.702927,44.041267 
	C40.702282,35.663433 47.996922,30.452749 56.248333,26.214241 
	C64.248581,22.104748 72.850853,21.237312 81.335823,22.471445 
	C98.783485,25.009193 112.368851,33.633541 120.104904,50.510475 
	C120.370316,52.561073 121.556465,53.800854 122.390007,55.612293 
	C122.644356,56.172855 122.735397,56.404697 122.914368,57.004993 
	C124.751953,63.466480 125.210152,69.697762 124.991829,76.390503 
	C124.977013,77.038208 124.966698,77.296394 124.904251,77.937119 
	C124.348961,80.032555 124.006187,81.790062 123.275597,83.833618 
	C123.134544,84.188316 123.094032,84.073540 123.151947,84.054871 
	C121.405411,85.817688 121.562386,88.145462 121.245331,90.721718 
	C121.051872,91.048340 121.000610,91.000000 121.025040,91.024765 
	C119.152321,92.347267 118.763283,94.382317 118.197121,96.703857 
	C117.978943,96.970276 118.004333,96.994934 117.988129,96.990044 
	C117.681747,97.282486 117.425827,97.607086 117.156616,98.262955 
z"/>
<path fill="#74C6BA" opacity="1.000000" stroke="none" 
	d="
M66.451538,182.680084 
	C65.865067,182.869904 65.687889,182.922119 65.244041,183.049530 
	C61.882462,183.896408 58.829746,183.579056 55.405830,182.603210 
	C50.585392,181.720276 46.155247,181.003098 41.355888,180.122925 
	C40.582062,179.534943 40.114597,179.204636 39.288071,178.902557 
	C38.865250,178.678375 38.710861,178.562561 38.369808,178.225494 
	C38.124947,177.249466 38.066746,176.494720 38.095398,175.369049 
	C38.342415,174.797134 38.502586,174.596176 38.877434,174.074509 
	C39.910549,169.956528 42.222305,168.947754 45.747547,170.176666 
	C48.031662,170.972916 50.444706,171.019287 52.625187,170.230545 
	C61.728092,166.937759 71.281624,167.453430 80.679070,166.704926 
	C83.403061,166.487961 85.958603,166.200073 88.059059,164.248962 
	C89.292732,163.103012 90.820557,162.386551 92.329025,161.697693 
	C98.676567,158.798996 104.112999,154.919662 107.229210,148.393112 
	C107.798523,147.200745 108.537285,145.968948 109.871185,145.511810 
	C112.623695,144.568481 115.000198,144.409271 114.307999,148.880219 
	C113.238609,155.649033 114.347099,162.075226 114.043221,168.505447 
	C113.879166,171.976944 113.913139,175.444550 112.766685,179.203110 
	C112.048653,180.811264 110.920303,180.975098 109.388855,181.042923 
	C101.166069,180.805542 93.714836,184.818481 85.348526,182.903656 
	C78.928406,182.105743 72.889397,182.654190 66.451538,182.680084 
z"/>
<path fill="#89C7BF" opacity="1.000000" stroke="none" 
	d="
M25.875195,129.067719 
	C28.808775,124.573250 33.729111,123.027756 37.823227,120.412621 
	C39.836620,119.126541 42.771366,119.662437 45.275036,121.311691 
	C52.541798,126.098549 60.595402,128.898941 69.659302,129.986832 
	C73.761620,130.947296 77.511734,130.331909 81.599091,130.269165 
	C87.932480,129.627365 93.409615,127.118736 99.599106,125.997940 
	C100.165222,126.243965 100.334488,126.404022 100.672546,126.872749 
	C100.877777,127.415215 100.914215,127.648994 100.893845,128.236053 
	C100.728088,128.803375 100.619141,129.017441 100.247940,129.481598 
	C99.350410,130.114594 98.655006,130.271133 97.568161,130.297150 
	C95.651070,130.652435 93.321930,130.153625 92.867874,132.026489 
	C91.291260,138.529572 85.653694,138.914948 80.863678,139.829697 
	C75.022453,140.945160 69.705742,142.740540 65.011887,146.410965 
	C63.116096,147.893417 60.789711,148.172043 58.424213,148.246521 
	C54.836040,148.359512 51.202747,147.928162 48.260868,151.045029 
	C46.852840,152.536835 44.225086,152.085968 43.807545,149.989487 
	C42.996677,145.918106 40.099602,144.935089 36.883545,144.098373 
	C33.480572,143.213043 30.672256,141.824997 30.222338,137.803436 
	C30.122963,136.915192 29.224194,136.550980 28.127750,136.072388 
	C25.583372,134.187057 27.517208,131.297028 25.875195,129.067719 
z"/>
<path fill="#7AC7BB" opacity="1.000000" stroke="none" 
	d="
M112.871033,148.332703 
	C113.685440,145.934357 112.356125,145.870621 111.336716,146.760712 
	C110.140350,147.805313 109.098572,149.284927 108.561455,150.781113 
	C106.432457,156.711563 101.377327,159.439758 96.409355,162.272049 
	C93.541481,163.907028 90.351616,164.989609 87.973228,167.438538 
	C86.875732,168.568558 85.437492,168.965485 83.891594,168.968903 
	C71.459251,168.996445 59.205154,170.361130 47.217216,173.787277 
	C46.652420,173.948700 45.604027,174.014877 45.437340,173.734772 
	C42.585960,168.942886 41.300789,172.955444 39.311714,174.843353 
	C37.948341,173.324829 38.783360,171.483215 38.313644,169.408844 
	C38.116379,168.595581 38.061184,168.137558 38.084763,167.340118 
	C39.712486,165.362335 41.261616,164.175644 43.827221,165.131805 
	C47.067554,166.339401 49.621296,163.229492 52.916546,163.428085 
	C66.608192,164.253143 78.928513,160.044144 90.749168,153.330902 
	C96.436333,150.101044 99.507256,144.805145 103.526588,140.269028 
	C109.101997,133.976746 115.482079,132.080109 123.125305,135.255722 
	C123.590706,135.449081 124.224564,135.615280 124.385086,136.011230 
	C125.885384,139.712097 128.570480,138.726685 131.612000,137.925385 
	C134.467072,139.926865 134.565842,143.317719 136.922272,145.706100 
	C137.504715,146.725418 137.777374,147.537720 138.055130,148.678406 
	C137.405075,149.378876 137.473999,149.879456 138.013245,150.628754 
	C138.399567,151.172668 138.496689,151.536224 138.498459,152.210388 
	C138.500381,152.878632 138.558029,153.252106 138.878860,153.815674 
	C139.283371,154.228271 139.439682,154.470306 139.714142,154.884674 
	C140.987686,156.062119 140.304962,157.407547 140.487213,158.969238 
	C139.572144,161.880569 137.333618,161.689468 136.143753,160.423538 
	C132.761765,156.825394 127.816711,156.661392 123.737854,153.955383 
	C123.388298,148.884995 120.057129,148.696609 116.217537,148.974167 
	C115.741791,149.263611 115.560837,149.394104 115.096298,149.702316 
	C114.812729,149.880035 114.889236,149.861221 114.877548,149.823608 
	C114.744720,149.976959 114.623581,150.167953 114.165054,150.323639 
	C113.190857,149.924454 112.906921,149.328415 112.871033,148.332703 
z"/>
<path fill="#85C9BE" opacity="1.000000" stroke="none" 
	d="
M27.606583,135.114807 
	C29.314619,134.839966 30.631035,134.706863 31.938568,134.513641 
	C33.214828,134.325073 34.710526,133.619736 35.389732,135.312683 
	C35.945213,136.697250 34.685772,137.301819 33.735649,137.980789 
	C31.776648,139.380737 32.301956,140.355408 34.345627,140.926071 
	C36.886761,141.635666 39.414394,142.678940 42.000530,142.871796 
	C45.451225,143.129150 47.864166,143.416702 45.268410,147.628326 
	C44.867199,148.279266 45.006237,149.256317 46.171818,150.353912 
	C48.259644,144.736938 53.023026,146.082718 57.288372,146.007019 
	C59.291405,145.971466 61.499584,146.191132 63.033356,144.835663 
	C69.751167,138.898819 78.311577,138.045731 86.465607,136.052856 
	C87.410233,135.821976 89.110603,135.906158 89.029480,135.034668 
	C88.430267,128.597595 93.724831,129.480118 97.624954,128.083954 
	C99.733017,131.228439 98.718597,134.563812 96.801529,136.804077 
	C91.575859,142.910751 86.125008,150.121628 78.500893,151.986816 
	C71.286156,153.751862 64.317795,157.085175 56.702736,157.289368 
	C53.571739,157.373306 50.484825,157.314438 47.467430,158.685425 
	C43.692890,160.400467 42.007835,156.546921 39.182144,154.830902 
	C37.841843,147.491943 37.699520,147.379059 31.288708,148.908295 
	C29.243034,152.353897 30.422770,155.822937 29.942188,159.559631 
	C27.069712,161.971863 25.692463,160.110611 24.405745,157.987869 
	C19.546703,149.971680 20.386583,143.150238 27.606583,135.114807 
z"/>
<path fill="#81C8BD" opacity="1.000000" stroke="none" 
	d="
M38.794308,153.654968 
	C41.022312,153.376389 43.687096,150.378876 44.085323,155.470901 
	C44.232052,157.347076 45.394138,157.770493 46.801846,156.598694 
	C48.782574,154.949905 51.075890,154.962845 53.409653,155.004623 
	C57.907101,155.085098 62.411957,155.356888 66.070396,151.859451 
	C66.695557,151.261810 67.940887,151.032867 68.875885,151.082520 
	C78.654518,151.601639 84.488617,145.918488 90.798309,139.295822 
	C94.029739,135.904099 95.065491,131.873291 97.886856,128.311249 
	C98.499901,128.257782 98.999130,128.506912 99.749954,128.877777 
	C100.002563,128.555542 100.003593,128.111588 100.005981,127.334671 
	C102.096001,125.333549 104.634224,124.291382 106.638565,122.018234 
	C106.764778,121.706413 106.894432,121.812309 106.816772,121.781075 
	C108.264259,121.312599 109.780052,120.736252 111.798965,121.668823 
	C113.928406,122.544357 115.640564,123.189156 117.677208,123.971771 
	C118.573990,124.744118 118.845573,125.483788 118.663467,126.725761 
	C116.176384,129.820755 112.503159,129.512100 109.516579,130.753693 
	C106.275185,132.101242 103.874512,133.813843 103.072227,137.011459 
	C99.970963,149.371933 90.117195,154.672836 79.696198,158.770584 
	C71.606178,161.951752 63.121735,164.405807 54.081043,163.565216 
	C48.967793,163.089783 44.046303,167.059341 38.454086,164.259613 
	C38.111134,160.964920 38.052769,157.932419 38.080292,154.452850 
	C38.302036,153.778976 38.437893,153.552200 38.794308,153.654968 
z"/>
<path fill="#7DC7BB" opacity="1.000000" stroke="none" 
	d="
M38.084503,164.367981 
	C45.774502,163.751083 53.365364,162.655075 60.831852,161.679794 
	C74.754555,159.861176 87.980339,155.243164 97.467422,143.762070 
	C98.835548,142.106384 99.602501,140.121765 100.167191,137.951401 
	C102.286812,129.804947 108.789139,125.728531 117.670448,126.938881 
	C121.890549,126.204132 124.309082,129.264496 127.702530,130.783966 
	C128.311340,131.121078 128.571060,131.302795 128.900940,131.755600 
	C129.458023,132.406464 129.481918,133.021042 129.886169,133.770432 
	C130.269882,134.208755 130.468170,134.418686 130.859680,134.741547 
	C131.228378,135.158203 131.446793,135.423843 131.893250,135.824173 
	C132.104752,135.972366 132.037292,135.972168 132.047501,135.940018 
	C132.392899,136.944336 133.745285,137.766220 132.372894,139.047287 
	C129.984833,139.111176 128.899353,140.052139 129.270721,142.200653 
	C129.699646,144.682251 128.299301,145.168854 126.344559,144.758072 
	C124.410706,144.351669 122.616096,143.480133 123.759941,141.032135 
	C125.251755,137.839401 123.325958,137.716537 120.962296,136.940720 
	C111.468353,133.824539 106.281509,139.621613 101.662582,146.141037 
	C95.200928,155.261398 85.872635,159.303955 75.612274,162.191254 
	C68.346436,164.235901 61.040939,164.933441 53.517239,165.247955 
	C48.697716,165.449432 43.841736,166.872787 38.529922,166.972839 
	C38.108860,166.246658 38.054180,165.492615 38.084503,164.367981 
z"/>
<path fill="#81C5BB" opacity="1.000000" stroke="none" 
	d="
M28.083328,134.657135 
	C27.830780,137.345444 27.224699,139.547104 25.866808,141.505493 
	C22.319860,146.621002 23.950306,155.687561 29.517021,159.950806 
	C29.919214,161.387741 29.976295,162.779648 29.954744,164.583649 
	C29.526918,165.349136 29.160557,165.824417 28.703972,165.872665 
	C22.537783,166.524399 17.151533,163.837372 11.559921,161.439941 
	C11.520986,158.927032 11.434676,156.789398 11.819632,154.332581 
	C14.107966,145.155441 17.187639,136.817459 24.146526,130.121048 
	C24.879227,129.875854 25.287170,129.676224 25.821621,129.073242 
	C26.000061,128.776001 25.868565,128.862045 25.821547,128.798645 
	C30.621088,128.860352 29.765060,131.428177 28.083328,134.657135 
z"/>
<path fill="#74C5B9" opacity="1.000000" stroke="none" 
	d="
M123.730896,153.200684 
	C129.109833,153.050537 133.714981,154.213806 136.976334,158.604675 
	C137.421036,159.203369 138.296814,159.481857 139.306732,159.959167 
	C141.440948,161.881088 140.105377,164.147934 140.141418,166.583069 
	C137.440094,174.693054 130.946243,176.700562 124.079002,177.897797 
	C120.288696,178.558578 122.322868,175.347046 121.915993,173.402985 
	C122.729767,172.250793 122.459053,171.362015 122.204529,170.263031 
	C121.926491,165.978470 121.861755,161.942200 121.887253,157.449448 
	C123.265137,156.121307 122.726151,154.496140 123.730896,153.200684 
z"/>
<path fill="#7AC3B8" opacity="1.000000" stroke="none" 
	d="
M11.937531,162.308884 
	C13.605305,161.969910 14.913234,161.899841 15.950024,160.863632 
	C16.520393,160.293564 17.642467,159.280563 17.947735,159.815399 
	C20.508141,164.301270 26.073280,161.912674 29.538733,164.955322 
	C29.942324,168.479584 30.048641,171.963394 30.050257,175.447266 
	C30.050741,176.489166 30.425394,177.781326 28.545286,177.948990 
	C22.842287,178.457565 14.911848,173.477280 12.162127,167.312378 
	C11.122160,165.605469 11.587340,164.087128 11.937531,162.308884 
z"/>
<path fill="#7CC2B8" opacity="1.000000" stroke="none" 
	d="
M112.783073,148.346954 
	C113.249489,148.514038 113.506226,149.011932 113.885376,149.762024 
	C115.076210,158.012177 114.267578,166.044952 114.295410,174.515518 
	C113.973358,176.553711 113.809746,178.135651 113.335098,179.966995 
	C112.823174,180.269714 112.622292,180.323029 112.215576,180.142197 
	C113.710175,171.618942 113.221359,163.281616 112.443413,154.956635 
	C112.244919,152.832458 111.667938,150.756989 112.783073,148.346954 
z"/>
<path fill="#7CC2B8" opacity="1.000000" stroke="none" 
	d="
M124.123489,152.692596 
	C123.924866,154.390305 124.124596,155.878311 122.295753,156.861282 
	C121.522469,153.755112 122.590958,149.450027 116.571846,149.885910 
	C115.866600,149.813919 115.580948,149.644501 115.166794,149.231964 
	C117.245934,145.701447 120.100456,147.911438 122.586449,148.405396 
	C124.454498,148.776566 124.884422,150.545517 124.123489,152.692596 
z"/>
<path fill="#DDBC71" opacity="1.000000" stroke="none" 
	d="
M62.655350,119.455460 
	C69.539749,119.188873 76.705292,120.637032 84.391083,120.041595 
	C84.381027,121.563965 83.385742,122.153435 81.851936,121.978249 
	C75.560585,121.259697 69.176125,121.320465 62.655350,119.455460 
z"/>
<path fill="#84C0B8" opacity="1.000000" stroke="none" 
	d="
M127.896805,130.679459 
	C124.563614,130.588013 121.204796,129.949814 118.299706,127.185776 
	C118.004219,126.277420 118.002342,125.554817 118.001076,124.470901 
	C122.444107,124.343628 124.729538,127.953293 127.896805,130.679459 
z"/>
<path fill="#2D2811" opacity="1.000000" stroke="none" 
	d="
M123.701332,58.635574 
	C126.574944,66.040741 127.038643,74.229782 124.387283,82.777985 
	C122.989670,81.680565 123.639282,80.074165 124.018387,78.308334 
	C124.425621,78.069214 124.247849,78.066330 124.249603,78.155212 
	C125.318314,71.885254 123.657219,65.663399 123.701332,58.635574 
z"/>
<path fill="#0B3132" opacity="1.000000" stroke="none" 
	d="
M114.329681,174.610718 
	C114.093010,166.964523 114.049065,158.957260 114.006454,150.482117 
	C114.007797,150.014221 114.429100,149.870987 114.647476,149.828491 
	C114.889046,157.942474 115.509109,166.107330 114.329681,174.610718 
z"/>
<path fill="#E2C073" opacity="1.000000" stroke="none" 
	d="
M27.405239,64.165100 
	C27.463795,71.148636 28.489048,78.184372 28.933743,85.696335 
	C27.594934,82.877975 27.137800,79.426712 26.646370,75.555374 
	C26.536901,74.635445 26.514339,74.129372 26.519135,73.241776 
	C26.516165,72.209023 26.515736,71.556465 26.501022,70.577919 
	C26.232389,69.525009 26.119106,68.787041 26.389050,67.654343 
	C26.560514,66.285225 26.366812,65.260887 27.405239,64.165100 
z"/>
<path fill="#83BEB7" opacity="1.000000" stroke="none" 
	d="
M132.157196,139.332458 
	C132.044327,138.152191 132.071426,137.297714 132.078125,136.175537 
	C134.685043,138.487564 135.869507,141.868317 137.215515,145.540833 
	C133.796158,145.241135 133.180176,142.344345 132.157196,139.332458 
z"/>
<path fill="#89C4BD" opacity="1.000000" stroke="none" 
	d="
M39.011261,153.565186 
	C39.014866,153.984512 38.590584,153.997543 38.378380,154.001648 
	C38.083122,149.811905 36.131134,147.997192 31.490150,149.145096 
	C32.187443,146.200394 34.659706,146.760712 36.740986,147.398819 
	C39.597908,148.274719 38.829712,150.986450 39.011261,153.565186 
z"/>
<path fill="#82C7BD" opacity="1.000000" stroke="none" 
	d="
M66.500549,182.905884 
	C72.075821,181.343369 78.148949,181.871628 84.585251,182.643890 
	C78.957207,183.547058 72.957855,183.250931 66.500549,182.905884 
z"/>
<path fill="#DDBC71" opacity="1.000000" stroke="none" 
	d="
M85.543594,120.041153 
	C88.510506,117.647263 92.395760,116.808823 96.727646,116.135529 
	C93.758430,118.500008 90.029770,119.810516 85.543594,120.041153 
z"/>
<path fill="#E2C073" opacity="1.000000" stroke="none" 
	d="
M30.728161,52.198761 
	C31.079706,55.995628 29.992998,59.764988 28.282330,63.743401 
	C28.075384,64.043114 27.799816,63.840015 27.662914,63.737282 
	C26.645679,61.978222 27.692163,60.337120 27.846413,58.374023 
	C28.909327,56.183651 29.690929,54.306004 30.728161,52.198761 
z"/>
<path fill="#83BCB5" opacity="1.000000" stroke="none" 
	d="
M106.423752,121.779457 
	C106.385330,125.331833 103.499504,126.070900 100.369362,126.973618 
	C100.007324,127.001701 100.001785,126.542801 99.998871,126.313354 
	C101.513611,123.937981 103.900604,123.042580 106.423752,121.779457 
z"/>
<path fill="#022023" opacity="1.000000" stroke="none" 
	d="
M12.200275,161.568481 
	C12.219370,163.396378 12.164864,164.784607 12.054501,166.587616 
	C10.280869,162.947372 10.769009,158.823044 11.840826,154.349457 
	C12.088781,156.383835 12.107728,158.756317 12.200275,161.568481 
z"/>
<path fill="#092629" opacity="1.000000" stroke="none" 
	d="
M55.229866,182.721680 
	C58.056660,182.607452 61.097782,182.777451 64.558136,183.036102 
	C61.784145,184.329147 58.601353,184.695847 55.229866,182.721680 
z"/>
<path fill="#032124" opacity="1.000000" stroke="none" 
	d="
M140.102234,166.634125 
	C139.845856,164.927414 139.830856,162.895111 139.728149,160.436279 
	C139.678116,158.623947 139.715805,157.238144 139.815125,155.440308 
	C141.748657,158.717316 141.266464,162.503815 140.102234,166.634125 
z"/>
<path fill="#312713" opacity="1.000000" stroke="none" 
	d="
M27.874531,58.334610 
	C27.978893,59.656673 27.830065,61.252052 27.603622,63.240990 
	C27.327362,64.499985 27.128712,65.365417 26.873257,66.562996 
	C26.758860,67.132080 26.701265,67.369034 26.365868,67.368042 
	C25.942442,64.171227 25.899014,61.230732 27.874531,58.334610 
z"/>
<path fill="#AAD9D6" opacity="1.000000" stroke="none" 
	d="
M81.504753,130.042084 
	C78.271950,131.645020 74.507698,131.140656 70.398575,130.299377 
	C73.722267,130.058441 77.386055,130.025970 81.504753,130.042084 
z"/>
<path fill="#E5C175" opacity="1.000000" stroke="none" 
	d="
M118.242783,96.760880 
	C118.143105,94.793045 117.504593,92.286987 120.695206,91.126984 
	C120.201851,92.883514 119.354233,94.717506 118.242783,96.760880 
z"/>
<path fill="#0E1619" opacity="1.000000" stroke="none" 
	d="
M147.648392,155.377441 
	C147.887756,158.376434 147.936356,161.722626 147.927979,165.521973 
	C146.394913,162.612259 146.862381,159.171036 147.648392,155.377441 
z"/>
<path fill="#DDBC71" opacity="1.000000" stroke="none" 
	d="
M55.164154,116.416534 
	C57.469238,116.212341 59.847137,116.639420 61.875126,118.885406 
	C59.839069,118.356354 57.603054,117.522942 55.164154,116.416534 
z"/>
<path fill="#E2C073" opacity="1.000000" stroke="none" 
	d="
M28.848934,86.411705 
	C31.446304,87.414024 31.051302,90.172791 31.777927,92.788605 
	C29.732307,91.528831 29.969154,88.849144 28.848934,86.411705 
z"/>
<path fill="#83BCB5" opacity="1.000000" stroke="none" 
	d="
M112.111420,121.559433 
	C110.694885,121.884819 109.173531,121.870071 107.195648,121.802582 
	C108.339233,120.027031 109.997910,118.885635 112.111420,121.559433 
z"/>
<path fill="#E5C175" opacity="1.000000" stroke="none" 
	d="
M121.323898,90.799164 
	C121.143730,88.748756 120.383507,86.255463 122.883301,84.232635 
	C123.497139,86.411942 121.908836,88.322960 121.323898,90.799164 
z"/>
<path fill="#0B3132" opacity="1.000000" stroke="none" 
	d="
M111.703751,180.012573 
	C112.178841,179.958969 112.347923,180.009903 112.770538,180.138611 
	C112.257446,181.906052 111.055817,182.216553 109.229713,181.136902 
	C109.786774,180.664993 110.592262,180.391052 111.703751,180.012573 
z"/>
<path fill="#141E23" opacity="1.000000" stroke="none" 
	d="
M75.368034,14.315416 
	C77.070038,14.092677 79.082878,14.052591 81.524094,14.068727 
	C79.925888,15.335896 77.819405,15.203235 75.368034,14.315416 
z"/>
<path fill="#E5C175" opacity="1.000000" stroke="none" 
	d="
M124.136719,78.349884 
	C124.285919,79.461479 124.146217,80.853737 124.074951,82.660484 
	C123.957405,83.362373 123.771431,83.649788 123.360001,84.062759 
	C123.009766,82.289200 122.615509,80.355499 124.136719,78.349884 
z"/>
<path fill="#E5C175" opacity="1.000000" stroke="none" 
	d="
M122.276001,55.565620 
	C120.679359,54.815151 120.149712,53.307640 120.125641,51.222649 
	C120.609535,51.459965 121.071747,52.052177 121.743607,52.845879 
	C122.627762,53.653748 122.480148,54.449661 122.276001,55.565620 
z"/>
<path fill="#89C4BD" opacity="1.000000" stroke="none" 
	d="
M38.090103,169.471863 
	C39.201344,170.646393 38.944405,172.445923 39.000820,174.581451 
	C39.003777,174.967300 38.593060,174.983948 38.387650,174.991028 
	C38.124374,173.295441 38.066505,171.592758 38.090103,169.471863 
z"/>
<path fill="#DDBC71" opacity="1.000000" stroke="none" 
	d="
M97.461975,116.123764 
	C97.720459,114.689758 98.897858,114.132545 100.724388,114.038147 
	C100.237366,115.139679 99.155830,115.845245 97.461975,116.123764 
z"/>
<path fill="#DDBC71" opacity="1.000000" stroke="none" 
	d="
M107.296310,109.938995 
	C107.049858,108.401237 107.639122,107.252579 109.784126,107.135567 
	C109.295074,108.054573 108.452217,108.968201 107.296310,109.938995 
z"/>
<path fill="#736742" opacity="1.000000" stroke="none" 
	d="
M25.970127,67.388077 
	C26.088066,67.130104 26.451275,67.009613 26.633865,66.952377 
	C26.804537,67.745934 26.792622,68.596733 26.633720,69.849731 
	C24.883017,69.722321 25.100716,68.749176 25.970127,67.388077 
z"/>
<path fill="#E2C073" opacity="1.000000" stroke="none" 
	d="
M35.488525,43.868423 
	C35.912029,44.982883 35.781006,46.124840 34.097355,46.824608 
	C34.233253,45.950138 34.715218,44.981525 35.488525,43.868423 
z"/>
<path fill="#DDBC71" opacity="1.000000" stroke="none" 
	d="
M48.073479,112.490814 
	C49.087639,112.093842 50.128681,112.240425 50.817780,113.745293 
	C50.015575,113.624390 49.118694,113.187645 48.073479,112.490814 
z"/>
<path fill="#7AC7BB" opacity="1.000000" stroke="none" 
	d="
M38.765717,178.280090 
	C39.600582,178.478378 40.199867,178.938065 40.892914,179.678848 
	C40.537659,179.971054 40.088638,179.982178 39.313877,179.900330 
	C38.658810,179.449326 38.506207,179.027359 38.765717,178.280090 
z"/>
<path fill="#84C7BD" opacity="1.000000" stroke="none" 
	d="
M138.205948,150.634918 
	C136.956543,150.603485 136.005417,150.155487 137.818451,149.077026 
	C138.060226,149.006790 138.258377,149.136398 138.228577,149.250977 
	C138.271393,149.656326 138.344025,149.947083 138.205948,150.634918 
z"/>
<path fill="#2D2811" opacity="1.000000" stroke="none" 
	d="
M122.069138,55.916882 
	C122.040894,55.197182 121.983391,54.480785 121.939560,53.405880 
	C122.323120,53.795895 122.692993,54.544422 122.568520,55.582687 
	C122.074173,55.872421 122.039864,55.920189 122.069138,55.916882 
z"/>
<path fill="#7CC2B8" opacity="1.000000" stroke="none" 
	d="
M121.904282,170.380463 
	C122.684044,170.772232 122.951813,171.592453 122.186432,172.757034 
	C121.945160,172.232117 121.881248,171.489151 121.904282,170.380463 
z"/>
<path fill="#E2C073" opacity="1.000000" stroke="none" 
	d="
M32.733475,48.141407 
	C32.739243,48.794525 32.460140,49.619869 31.904104,50.635078 
	C31.900986,49.987843 32.174797,49.150738 32.733475,48.141407 
z"/>
<path fill="#7BC4B8" opacity="1.000000" stroke="none" 
	d="
M138.002365,151.350464 
	C138.026978,150.754440 138.058716,150.476852 138.144608,149.782410 
	C139.072083,150.135971 139.065048,151.197342 139.097946,152.614365 
	C138.873444,153.140549 138.696442,153.282196 138.278534,153.183853 
	C138.028229,152.518875 138.018845,152.093887 138.002365,151.350464 
z"/>
<path fill="#DDBC71" opacity="1.000000" stroke="none" 
	d="
M104.432060,112.091194 
	C104.708626,111.561119 105.309441,110.959755 106.232025,110.288101 
	C106.178917,111.042213 105.715172,111.777992 104.432060,112.091194 
z"/>
<path fill="#DDBC71" opacity="1.000000" stroke="none" 
	d="
M101.315376,114.050941 
	C101.486572,113.742027 101.956390,113.408531 102.718491,113.034531 
	C102.545181,113.338142 102.079590,113.682251 101.315376,114.050941 
z"/>
<path fill="#89C4BD" opacity="1.000000" stroke="none" 
	d="
M38.796780,178.013855 
	C38.998909,178.416061 38.996517,178.813416 38.991131,179.509079 
	C38.191711,179.778961 38.057182,179.234009 38.112789,178.299896 
	C38.183144,178.004211 38.592262,178.009003 38.796780,178.013855 
z"/>
<path fill="#DDBC71" opacity="1.000000" stroke="none" 
	d="
M52.928036,115.474846 
	C53.309589,115.371567 53.875511,115.507271 54.636909,115.858154 
	C54.259056,115.953506 53.685730,115.833664 52.928036,115.474846 
z"/>
<path fill="#DDBC71" opacity="1.000000" stroke="none" 
	d="
M51.118752,114.339523 
	C51.488144,114.332756 52.022953,114.575363 52.732811,115.068169 
	C52.366627,115.075211 51.825401,114.832047 51.118752,114.339523 
z"/>
<path fill="#111B1D" opacity="1.000000" stroke="none" 
	d="
M4.261629,157.799454 
	C4.089059,157.540955 4.052058,157.105804 4.072714,156.346893 
	C4.547820,156.501556 4.786875,157.009735 4.261629,157.799454 
z"/>
<path fill="#84C0B8" opacity="1.000000" stroke="none" 
	d="
M130.128082,133.659058 
	C129.777771,133.496658 129.460281,133.016815 129.077728,132.252106 
	C129.395416,132.425354 129.778168,132.883484 130.128082,133.659058 
z"/>
<path fill="#2D2811" opacity="1.000000" stroke="none" 
	d="
M123.045288,55.989693 
	C123.396736,56.410263 123.676155,56.884926 124.027138,57.627434 
	C124.098709,57.895279 123.897354,58.073704 123.795807,58.161919 
	C122.812241,58.162533 122.571693,57.568066 122.691071,56.478920 
	C122.832802,56.156647 122.973244,56.043789 123.045288,55.989693 
z"/>
<path fill="#736742" opacity="1.000000" stroke="none" 
	d="
M26.368782,73.066574 
	C26.606020,73.368729 26.695450,73.875870 26.687115,74.761597 
	C26.466557,74.517311 26.343763,73.894432 26.368782,73.066574 
z"/>
<path fill="#141E23" opacity="1.000000" stroke="none" 
	d="
M69.102448,14.121225 
	C68.996033,14.037237 69.477997,14.074473 69.716537,14.113461 
	C69.955070,14.152449 69.585114,14.297892 69.585114,14.297892 
	C69.585114,14.297892 69.208855,14.205214 69.102448,14.121225 
z"/>
<path fill="#DDBC71" opacity="1.000000" stroke="none" 
	d="
M103.255661,112.964684 
	C103.226906,112.772171 103.463989,112.538857 103.931137,112.205940 
	C103.947975,112.378845 103.734741,112.651367 103.255661,112.964684 
z"/>
<path fill="#E2C073" opacity="1.000000" stroke="none" 
	d="
M31.510706,50.842278 
	C31.606449,51.011093 31.471922,51.321865 31.155533,51.813541 
	C31.075928,51.657711 31.178183,51.320972 31.510706,50.842278 
z"/>
<path fill="#E5C175" opacity="1.000000" stroke="none" 
	d="
M117.367493,98.378983 
	C117.267090,98.195847 117.420250,97.820892 117.772659,97.215546 
	C117.854958,97.385818 117.738007,97.786491 117.367493,98.378983 
z"/>
<path fill="#0B3132" opacity="1.000000" stroke="none" 
	d="
M114.935318,149.240845 
	C115.321060,149.179718 115.631676,149.323624 116.061203,149.701935 
	C115.952324,149.935440 115.724533,149.934555 115.154739,149.906860 
	C114.812729,149.880035 114.860199,149.445877 114.935318,149.240845 
z"/>
<path fill="#89C7BF" opacity="1.000000" stroke="none" 
	d="
M25.662445,128.856842 
	C25.662409,129.058441 25.324757,129.340866 24.703234,129.796356 
	C24.721184,129.625488 25.023008,129.281586 25.662445,128.856842 
z"/>
<path fill="#111B1D" opacity="1.000000" stroke="none" 
	d="
M4.275766,167.842346 
	C4.218746,167.959320 4.064361,167.501450 4.104600,167.263184 
	C4.347371,167.232040 4.410020,167.465530 4.275766,167.842346 
z"/>
<path fill="#111B1D" opacity="1.000000" stroke="none" 
	d="
M4.200103,164.862411 
	C4.131986,164.975906 4.025309,164.501083 4.076347,164.263153 
	C4.318282,164.249359 4.365227,164.490601 4.200103,164.862411 
z"/>
<path fill="#83BEB7" opacity="1.000000" stroke="none" 
	d="
M132.016922,135.696442 
	C131.846344,135.746857 131.587921,135.521332 131.179382,135.086304 
	C131.329208,135.058044 131.629150,135.239288 132.016922,135.696442 
z"/>
<path fill="#84C7BD" opacity="1.000000" stroke="none" 
	d="
M138.182953,153.148987 
	C138.206421,152.953217 138.375214,152.962570 138.797226,152.985413 
	C139.099060,153.166901 139.147659,153.334869 139.139404,153.758911 
	C138.831131,153.794693 138.579712,153.574417 138.182953,153.148987 
z"/>
<path fill="#C58D32" opacity="1.000000" stroke="none" 
	d="
M68.310791,66.879417 
	C63.473774,65.541779 62.224392,61.862270 61.867584,57.686893 
	C61.428864,52.552917 64.277328,49.118240 68.315552,46.701435 
	C70.618607,45.323090 73.148781,44.597931 73.321358,41.245136 
	C73.385422,40.000401 74.762718,39.475651 76.000053,39.471748 
	C77.275444,39.467728 78.572952,40.158527 78.608444,41.353683 
	C78.724327,45.255558 81.810204,46.464031 84.333199,48.241539 
	C86.311172,49.635056 87.536636,51.600834 88.374924,53.816635 
	C89.063171,55.635818 89.363556,57.551685 87.292809,58.618385 
	C85.555450,59.513344 84.064911,58.700363 83.037682,57.124226 
	C81.265984,54.405811 78.805756,53.002598 75.532936,52.966572 
	C70.581345,52.912071 68.897942,55.108269 70.116638,60.616310 
	C69.405159,62.809963 70.550713,65.198586 68.310791,66.879417 
z"/>
<path fill="#D19637" opacity="1.000000" stroke="none" 
	d="
M96.256454,39.009888 
	C90.248390,37.429596 84.892120,34.258904 78.598236,33.980034 
	C66.509033,33.444386 56.350098,37.760506 47.382523,46.145126 
	C45.576561,45.556412 45.414562,44.231834 45.765488,42.315998 
	C51.316059,34.488228 59.176830,31.151686 67.838844,29.613337 
	C78.484764,27.722651 88.697021,28.947605 98.064667,35.614975 
	C98.325012,37.238728 97.540176,38.073341 96.256454,39.009888 
z"/>
<path fill="#272E27" opacity="1.000000" stroke="none" 
	d="
M71.453079,103.630959 
	C67.512062,102.612114 64.217148,101.122612 61.953644,98.012680 
	C60.747192,96.355087 60.438732,94.592361 62.077969,93.100609 
	C63.574768,91.738480 65.088982,92.368843 66.563614,93.451752 
	C74.769737,99.477959 77.006073,99.485062 85.019562,93.409264 
	C86.546265,92.251732 88.101135,91.871735 89.514084,93.121124 
	C91.108231,94.530746 91.161133,96.366745 89.635109,97.941093 
	C88.056435,99.569740 86.714920,101.536720 84.018692,102.182480 
	C79.887444,103.804520 75.859520,103.498734 71.453079,103.630959 
z"/>
<path fill="#252C25" opacity="1.000000" stroke="none" 
	d="
M62.740631,79.011719 
	C61.241421,84.985497 58.618484,87.321594 55.051807,86.246292 
	C51.337753,85.126556 49.485577,80.235146 50.977608,75.984146 
	C51.911381,73.323692 53.794529,71.708000 56.372803,71.629692 
	C58.724331,71.558289 60.754917,72.923470 61.678806,75.346596 
	C62.087914,76.419579 62.385517,77.535072 62.740631,79.011719 
z"/>
<path fill="#242B25" opacity="1.000000" stroke="none" 
	d="
M89.256096,81.156754 
	C89.120956,79.880554 89.117317,78.866226 89.117264,77.471046 
	C89.700272,75.927788 89.551819,74.467239 90.862129,73.303467 
	C91.130516,73.112656 91.010094,73.020500 91.062576,73.075356 
	C93.228020,71.091980 95.631950,70.490150 98.460396,72.093201 
	C98.526886,72.530632 98.703621,72.304565 98.635376,72.430771 
	C102.862778,74.834930 101.934776,78.630043 101.101242,82.622665 
	C100.802422,82.934395 100.886391,82.914055 100.873573,82.872803 
	C100.603874,83.403732 100.515602,84.035133 99.941666,84.697906 
	C99.643951,84.795280 99.795013,84.804039 99.793892,84.728394 
	C99.668289,85.429138 99.006676,85.465881 98.178192,85.794495 
	C97.915558,85.954491 97.977921,85.979782 97.971390,85.946777 
	C96.700394,87.089226 95.275169,87.140785 93.384232,86.251801 
	C93.015244,85.987381 93.000565,85.999435 93.005699,85.991821 
	C92.572868,85.560631 91.971428,85.515579 91.298569,85.054474 
	C91.156189,84.802727 91.104179,84.898087 91.151764,84.871918 
	C90.537750,84.602089 90.523689,83.971382 90.191620,83.189865 
	C90.028259,82.946632 89.994644,82.990784 90.022377,82.991432 
	C89.559219,82.581306 89.511017,81.984131 89.256096,81.156754 
z"/>
<path fill="#D79C3D" opacity="1.000000" stroke="none" 
	d="
M96.255966,39.497826 
	C96.070366,38.002415 96.237129,36.783154 97.942520,36.021591 
	C103.274353,38.096298 106.904091,41.793114 109.915131,46.637669 
	C110.069786,49.333725 112.842316,51.836941 109.403503,54.046085 
	C105.759377,48.410847 101.440331,43.779396 96.255966,39.497826 
z"/>
<path fill="#D89D3E" opacity="1.000000" stroke="none" 
	d="
M45.527504,42.017845 
	C46.798508,42.924255 46.989189,44.207664 47.074638,45.942131 
	C45.155064,49.674713 43.204105,53.001637 41.098129,56.635002 
	C39.269135,57.609264 37.782902,57.617825 36.885151,55.369797 
	C38.692375,50.040962 41.020855,45.485798 45.527504,42.017845 
z"/>
<path fill="#E2A746" opacity="1.000000" stroke="none" 
	d="
M36.726448,55.258251 
	C38.081161,55.546188 39.217644,56.121696 40.648617,56.819321 
	C39.511372,60.901520 38.127438,64.873268 37.955017,69.556831 
	C36.696152,71.172173 35.320034,71.480736 33.420544,70.262039 
	C33.867966,65.074089 34.192802,60.072655 36.726448,55.258251 
z"/>
<path fill="#E7AE48" opacity="1.000000" stroke="none" 
	d="
M115.737335,60.799072 
	C118.601997,64.693291 118.040154,68.880943 117.833427,72.993530 
	C117.773750,74.180786 117.286896,75.379410 115.848068,75.440102 
	C114.233124,75.508217 114.210281,74.143738 114.001358,73.012505 
	C113.371201,69.600624 112.732811,66.190277 112.083160,62.374420 
	C112.967445,61.000061 113.945518,60.227219 115.737335,60.799072 
z"/>
<path fill="#DEA544" opacity="1.000000" stroke="none" 
	d="
M116.052422,60.581150 
	C114.970749,61.295979 113.863457,61.620342 112.412430,61.957108 
	C111.918015,59.229942 109.998405,57.162029 109.149582,54.306557 
	C110.901009,52.036427 108.702644,49.599308 109.932098,47.249969 
	C113.204163,50.838680 115.211487,55.246769 116.052422,60.581150 
z"/>
<path fill="#ECB04B" opacity="1.000000" stroke="none" 
	d="
M33.051292,70.397110 
	C34.425365,69.970779 35.779888,69.978638 37.540199,69.978569 
	C37.951801,72.296196 38.004391,74.622948 37.945221,76.946846 
	C37.911736,78.261887 37.909866,79.921951 36.298576,80.194206 
	C34.239407,80.542145 33.939415,78.596466 33.674110,77.235893 
	C33.265228,75.139008 33.227127,72.969826 33.051292,70.397110 
z"/>
<path fill="#DCA242" opacity="1.000000" stroke="none" 
	d="
M71.713562,63.004730 
	C74.176872,63.515575 76.213631,64.210426 78.598129,64.990936 
	C80.317436,66.635628 80.159401,68.065674 78.266121,69.646790 
	C75.881622,69.604446 73.814270,69.291443 71.352921,68.937302 
	C69.216957,66.887260 69.388214,64.988342 71.713562,63.004730 
z"/>
<path fill="#CF9739" opacity="1.000000" stroke="none" 
	d="
M71.981140,62.602432 
	C71.773224,64.595139 71.406342,66.369553 70.999191,68.520073 
	C70.090141,68.436127 69.221367,67.976089 68.175262,67.269821 
	C68.275154,64.994217 65.950966,62.288166 69.878647,61.042259 
	C70.756317,61.438614 71.289246,61.911377 71.981140,62.602432 
z"/>
<path fill="#EBAF4B" opacity="1.000000" stroke="none" 
	d="
M78.338669,69.932022 
	C78.274651,68.539337 78.600327,67.161217 78.935928,65.429840 
	C79.600731,65.063118 80.260521,64.992279 80.909477,65.047874 
	C82.348114,65.171150 84.150681,65.010857 84.275482,67.038368 
	C84.373749,68.634895 82.842590,69.102646 81.622269,69.505943 
	C80.708855,69.807816 79.696609,69.810623 78.338669,69.932022 
z"/>
<path fill="#E5C175" opacity="1.000000" stroke="none" 
	d="
M122.643585,56.084427 
	C122.979004,56.719360 123.125214,57.282074 123.482834,58.047462 
	C124.021515,64.680061 126.064789,71.016769 124.496643,77.890213 
	C124.236877,70.998756 123.074799,63.871063 122.060059,56.301064 
	C122.074173,55.872421 122.454361,56.012211 122.643585,56.084427 
z"/>
<path fill="#D8B86A" opacity="1.000000" stroke="none" 
	d="
M101.113861,82.747231 
	C101.401520,79.448006 101.783417,76.000679 98.801743,72.836578 
	C102.508003,73.882484 103.713127,78.100197 101.113861,82.747231 
z"/>
<path fill="#D8B86A" opacity="1.000000" stroke="none" 
	d="
M98.459610,72.178558 
	C96.224510,71.135147 94.002846,71.227814 91.490723,73.011024 
	C93.066353,70.047256 95.335716,68.739716 98.459610,72.178558 
z"/>
<path fill="#28260D" opacity="1.000000" stroke="none" 
	d="
M71.469208,103.870277 
	C74.946335,103.203880 78.857330,102.677155 83.228951,102.156113 
	C80.121803,105.080475 75.950798,104.152054 71.469208,103.870277 
z"/>
<path fill="#D8B86A" opacity="1.000000" stroke="none" 
	d="
M93.138046,86.304008 
	C94.390320,86.008034 95.765396,86.028687 97.552658,85.981552 
	C96.745430,88.469078 95.153900,88.548157 93.138046,86.304008 
z"/>
<path fill="#D8B86A" opacity="1.000000" stroke="none" 
	d="
M90.797089,73.224396 
	C90.613914,74.291237 90.097305,75.469818 89.350769,76.869293 
	C88.985947,75.630486 88.906441,74.190582 90.797089,73.224396 
z"/>
<path fill="#D8B86A" opacity="1.000000" stroke="none" 
	d="
M98.211716,85.899200 
	C98.345474,85.566429 98.775391,85.178360 99.499039,84.721527 
	C99.364471,85.049797 98.936165,85.446846 98.211716,85.899200 
z"/>
<path fill="#D8B86A" opacity="1.000000" stroke="none" 
	d="
M91.314484,85.042801 
	C91.684479,85.024384 92.212761,85.246040 92.875946,85.725952 
	C92.498154,85.750427 91.985466,85.516655 91.314484,85.042801 
z"/>
<path fill="#D8B86A" opacity="1.000000" stroke="none" 
	d="
M99.909706,84.638336 
	C99.888252,84.256195 100.132561,83.717102 100.618813,83.004784 
	C100.632324,83.381493 100.403893,83.931442 99.909706,84.638336 
z"/>
<path fill="#D8B86A" opacity="1.000000" stroke="none" 
	d="
M90.068558,83.238449 
	C90.375107,83.392334 90.721947,83.838028 91.134079,84.564735 
	C90.835854,84.407249 90.472351,83.968758 90.068558,83.238449 
z"/>
<path fill="#D8B86A" opacity="1.000000" stroke="none" 
	d="
M89.132957,81.192474 
	C89.424034,81.393753 89.723473,81.892624 90.036514,82.691788 
	C89.747177,82.491409 89.444244,81.990738 89.132957,81.192474 
z"/>
<path fill="#85C9BE" opacity="1.000000" stroke="none" 
	d="
M100.000763,128.999756 
	C100.001526,128.999496 100.059792,129.109207 100.029663,129.055389 
	C99.999535,129.001587 100.000000,129.000000 100.000763,128.999756 
z"/>
<path fill="#7AC7BB" opacity="1.000000" stroke="none" 
	d="
M138.504852,162.506958 
	C138.485016,162.514481 138.524704,162.499435 138.504852,162.506958 
z"/>
</svg>